<?xml version="1.0" encoding="utf-8"?>
<!-- Generator: Adobe Illustrator 22.1.0, SVG Export Plug-In . SVG Version: 6.00 Build 0)  -->
<svg version="1.1" id="Layer_1" xmlns="http://www.w3.org/2000/svg" xmlns:xlink="http://www.w3.org/1999/xlink" x="0px" y="0px"
	 viewBox="0 0 512 512" style="enable-background:new 0 0 512 512;" xml:space="preserve">
<style type="text/css">
	.st0{opacity:0;fill:#121212;}
	.st1{fill:#DAA520;stroke:#000000;stroke-width:4;stroke-miterlimit:10;}
</style>
<g>
	<circle class="st0" cx="256" cy="256" r="256"/>
	<g>
		<path class="st1" d="M355.6,68.4c-4.4,6.2-9,12.8-15,17.3c-6.2,4.4-5,2.2-7.8,9.4c-1.2,2.8-1.2,8.4-1.6,11.2
			c-3.4,20.6-5,41.9-7.2,63.1c-2.2,17.8-4.4,36.3-7.2,54.1c-2.8,17.3-7.8,34.6-9.4,51.9c-1.2,15.6-6.2,30.1-10,45.1
			c-2.2,9-2.8,17.8-5,26.8c-1.6,9-5.6,17.3-8.4,25.7c-4.4,13.4-11.2,25.1-15,37.9c-5,15.6-14,34.6-21.8,48.5
			c-7.2,14-16.2,27.3-29,35.7c-14.5,10-24,9-37.3-2.8c-5-4.4-4.4-5-6.6-11.2c-1.6-4.4-0.6-2.8-3.8-7.2c-1.2-2.2-3.4-3.8-4.4-6.2
			c-2.2-5.6,0-7.8,0-11.7c0-7.2-2.2-16.7-5-22.9c-2.8-7.2-4.4-15-6.2-22.9c-1.6-6.2-5-11.7-6.6-18.4c-1.6-6.6-2.2-13.4-3.4-20.1
			c-1.2-6.6-3.8-14.5-4.4-21.2c0-7.2,1.2-10.6-0.6-18.4c-1.6-9-3.4-17.8-4.4-26.8c-2.8-19.5-5-39.1-9-58.6c-1.6-9.4-5-19-6.6-28.5
			c-1.2-5.6-0.6-11.2-3.8-16.7c-4.4-7.2-3.8-3.8-4.4-11.2c-0.6-3.8,0-7.8-0.6-11.7c-0.6-2.8-1.6-5-2.2-7.8c-1.2-5,0-11.2-1.2-15.6
			c-2.2-6.2-11.2-11.7-12.8-17.3c-0.6-2.2,1.6-4.4,1.6-6.6c-0.6-5.6-4.4-5-6.2-9.4c-3.4-9,5-10.6,10.6-15c0.6-0.6,4.4-3.8,5.6-4.4
			c0.6-3.8,2.8-4.4,6.6-2.2c3.4,2.8,5,2.8,5.6,0.6c0-1.6-6.2-2.2-7.2-3.8c7.2-1.6,14,1.2,20.6,5c6.6,3.8,7.2,5,8.4,12.2
			c0.6,5,0.6,8.4,0.6,13.4c0,5.6,2.8,15,3.8,21.8c1.2,7.8,5.6,14.5,7.2,21.2c1.2,7.2-1.2,16.2,0.6,23.4c1.6,7.8,3.4,15,3.8,22.9
			c0,6.2-1.6,11.7-0.6,17.8c0,1.6,2.8,2.8,2.8,4.4c0.6,2.8-1.2,5.6-1.2,9c-0.6,8.4,4.4,15,5.6,23.4c0.6,3.4-0.6,6.2-0.6,9
			c0,4.4,0.6,4.4,1.2,9c0.6,2.8,2.8,7.2,3.4,9.4c0,2.8-1.6,5-1.6,7.2c0,4.4,2.8,8.4,2.8,12.2c0.6,5,0.6,9,2.2,14
			c2.2,8.4,0.6,30.1,10.6,32.3c0,1.2-3.4,2.8-3.4,3.4c0.6,2.2,1.2,3.8,2.2,6.2c1.2,3.8,2.8,5.6,3.4,9.4c2.2,11.2,3.8,22.9,5.6,34.1
			c1.2,6.2,2.2,10.6,5.6,17.3c1.2,2.2,3.8,3.4,4.4,5.6c1.2,2.8,1.2,7.2,2.2,10.6c7.2,17.3,14.5,2.8,20.1-6.2c2.2-3.8,5-9,7.2-13.4
			c1.2-2.2,0-4.4,0.6-6.6c0.6-0.6,3.4-0.6,3.4-1.2c3.8-10,9.4-21.8,12.8-31.8c1.2-2.8,0.6-7.2,1.6-10c1.6-4.4,6.2-9,7.8-14
			c1.2-3.4,1.2-6.2,1.6-10c0-1.2-0.6-5-0.6-5.6c0.6-1.6,5-5.6,6.2-8.4c3.4-10.6,3.8-21.8,7.2-32.3c1.6-5,2.8-7.8,3.4-12.2
			c0.6-4.4,0.6-9,2.2-13.4c6.2-25.7,10-51.3,16.2-77c5-20.6,4.4-39.1,6.2-60.3c1.2-14,5-27.3,6.2-41.3c0.6-6.6-0.6-15.6,1.2-22.3
			c1.2-3.4,3.4-2.8,4.4-7.8c0.6-2.8-1.2-5.6-1.2-8.4c-1.2-11.7,1.2-22.3,0.6-34.6c-0.6-10.6-2.8-19.5,9.4-21.8
			c0-0.6,12.2-2.8,12.8-2.8c3.8,1.2,10.6,12.2,12.8,15.6c3.8,5.6,7.2,12.2,8.4,19C353.4,52.8,350.6,60.6,355.6,68.4z M288.6,246.4
			c-1.2-1.2-2.8-1.6-3.8-2.2C284.8,248.1,285.8,248.6,288.6,246.4z"/>
		<path class="st1" d="M413.7,101.9c-1.6,15-7.2,25.7-12.2,39.1c-2.2,6.6-5.6,12.8-7.8,19.5c-1.2,3.4-1.6,9-2.8,11.7
			c-0.6,1.6-2.8,3.8-3.4,5.6c-3.8,12.8,4.4,30.1-1.6,40.7c-6.6,11.2-20.1,17.8-30.7,9.4c-26.8-21.2-2.2-63.6,6.6-88.8
			c2.8-7.8,5.6-16.2,7.8-24c1.6-6.2,1.6-16.7,6.6-20.6c4.4-4.4,16.2-5,22.3-5C404.1,90.2,410.3,94.7,413.7,101.9z"/>
	</g>
</g>
</svg>
