<?xml version="1.0" encoding="utf-8"?>
<!-- Generator: Adobe Illustrator 22.1.0, SVG Export Plug-In . SVG Version: 6.00 Build 0)  -->
<svg version="1.1" id="Layer_1" xmlns="http://www.w3.org/2000/svg" xmlns:xlink="http://www.w3.org/1999/xlink" x="0px" y="0px"
	 viewBox="0 0 512 512" style="enable-background:new 0 0 512 512;" xml:space="preserve">
<style type="text/css">
	.st0{fill:#121212;}
	.st1{fill:#DAA520;}
</style>
<g>
	<circle class="st0" cx="256" cy="256" r="256"/>
	<g>
		<path class="st1" d="M340.7,95.2c-3.8,5.3-7.7,11-12.9,14.8c-5.3,3.8-4.3,1.9-6.7,8.1c-1,2.4-1,7.2-1.4,9.6
			c-2.9,17.7-4.3,35.9-6.2,54.1c-1.9,15.3-3.8,31.1-6.2,46.4c-2.4,14.8-6.7,29.7-8.1,44.5c-1,13.4-5.3,25.8-8.6,38.7
			c-1.9,7.7-2.4,15.3-4.3,23c-1.4,7.7-4.8,14.8-7.2,22c-3.8,11.5-9.6,21.5-12.9,32.5c-4.3,13.4-12,29.7-18.7,41.6
			c-6.2,12-13.9,23.4-24.9,30.6c-12.4,8.6-20.6,7.7-32-2.4c-4.3-3.8-3.8-4.3-5.7-9.6c-1.4-3.8-0.5-2.4-3.3-6.2
			c-1-1.9-2.9-3.3-3.8-5.3c-1.9-4.8,0-6.7,0-10c0-6.2-1.9-14.3-4.3-19.6c-2.4-6.2-3.8-12.9-5.3-19.6c-1.4-5.3-4.3-10-5.7-15.8
			c-1.4-5.7-1.9-11.5-2.9-17.2c-1-5.7-3.3-12.4-3.8-18.2c0-6.2,1-9.1-0.5-15.8c-1.4-7.7-2.9-15.3-3.8-23
			c-2.4-16.7-4.3-33.5-7.7-50.2c-1.4-8.1-4.3-16.3-5.7-24.4c-1-4.8-0.5-9.6-3.3-14.3c-3.8-6.2-3.3-3.3-3.8-9.6
			c-0.5-3.3,0-6.7-0.5-10c-0.5-2.4-1.4-4.3-1.9-6.7c-1-4.3,0-9.6-1-13.4c-1.9-5.3-9.6-10-11-14.8c-0.5-1.9,1.4-3.8,1.4-5.7
			c-0.5-4.8-3.8-4.3-5.3-8.1c-2.9-7.7,4.3-9.1,9.1-12.9c0.5-0.5,3.8-3.3,4.8-3.8c0.5-3.3,2.4-3.8,5.7-1.9c2.9,2.4,4.3,2.4,4.8,0.5
			c0-1.4-5.3-1.9-6.2-3.3c6.2-1.4,12,1,17.7,4.3c5.7,3.3,6.2,4.3,7.2,10.5c0.5,4.3,0.5,7.2,0.5,11.5c0,4.8,2.4,12.9,3.3,18.7
			c1,6.7,4.8,12.4,6.2,18.2c1,6.2-1,13.9,0.5,20.1c1.4,6.7,2.9,12.9,3.3,19.6c0,5.3-1.4,10-0.5,15.3c0,1.4,2.4,2.4,2.4,3.8
			c0.5,2.4-1,4.8-1,7.7c-0.5,7.2,3.8,12.9,4.8,20.1c0.5,2.9-0.5,5.3-0.5,7.7c0,3.8,0.5,3.8,1,7.7c0.5,2.4,2.4,6.2,2.9,8.1
			c0,2.4-1.4,4.3-1.4,6.2c0,3.8,2.4,7.2,2.4,10.5c0.5,4.3,0.5,7.7,1.9,12c1.9,7.2,0.5,25.8,9.1,27.7c0,1-2.9,2.4-2.9,2.9
			c0.5,1.9,1,3.3,1.9,5.3c1,3.3,2.4,4.8,2.9,8.1c1.9,9.6,3.3,19.6,4.8,29.2c1,5.3,1.9,9.1,4.8,14.8c1,1.9,3.3,2.9,3.8,4.8
			c1,2.4,1,6.2,1.9,9.1c6.2,14.8,12.4,2.4,17.2-5.3c1.9-3.3,4.3-7.7,6.2-11.5c1-1.9,0-3.8,0.5-5.7c0.5-0.5,2.9-0.5,2.9-1
			c3.3-8.6,8.1-18.7,11-27.3c1-2.4,0.5-6.2,1.4-8.6c1.4-3.8,5.3-7.7,6.7-12c1-2.9,1-5.3,1.4-8.6c0-1-0.5-4.3-0.5-4.8
			c0.5-1.4,4.3-4.8,5.3-7.2c2.9-9.1,3.3-18.7,6.2-27.7c1.4-4.3,2.4-6.7,2.9-10.5s0.5-7.7,1.9-11.5c5.3-22,8.6-44,13.9-66
			c4.3-17.7,3.8-33.5,5.3-51.7c1-12,4.3-23.4,5.3-35.4c0.5-5.7-0.5-13.4,1-19.1c1-2.9,2.9-2.4,3.8-6.7c0.5-2.4-1-4.8-1-7.2
			c-1-10,1-19.1,0.5-29.7c-0.5-9.1-2.4-16.7,8.1-18.7c0-0.5,10.5-2.4,11-2.4c3.3,1,9.1,10.5,11,13.4c3.3,4.8,6.2,10.5,7.2,16.3
			C338.8,81.8,336.4,88.5,340.7,95.2z M283.3,247.8c-1-1-2.4-1.4-3.3-1.9C280,249.2,280.9,249.7,283.3,247.8z"/>
		<path class="st1" d="M390.5,123.9c-1.4,12.9-6.2,22-10.5,33.5c-1.9,5.7-4.8,11-6.7,16.7c-1,2.9-1.4,7.7-2.4,10
			c-0.5,1.4-2.4,3.3-2.9,4.8c-3.3,11,3.8,25.8-1.4,34.9c-5.7,9.6-17.2,15.3-26.3,8.1c-23-18.2-1.9-54.5,5.7-76.1
			c2.4-6.7,4.8-13.9,6.7-20.6c1.4-5.3,1.4-14.3,5.7-17.7c3.8-3.8,13.9-4.3,19.1-4.3C382.3,113.9,387.6,117.7,390.5,123.9z"/>
	</g>
</g>
</svg>
