<?xml version="1.0" encoding="utf-8"?>
<!-- Generator: Adobe Illustrator 22.1.0, SVG Export Plug-In . SVG Version: 6.00 Build 0)  -->
<svg version="1.1" id="Layer_1" xmlns="http://www.w3.org/2000/svg" xmlns:xlink="http://www.w3.org/1999/xlink" x="0px" y="0px"
	 viewBox="0 0 341.4 88.2" style="enable-background:new 0 0 341.4 88.2;" xml:space="preserve">
<style type="text/css">
	.st0{display:none;fill:#DAA520;}
	.st1{fill:#DAA520;}
</style>
<g>
	<path class="st0" d="M96.1,8.8c-0.1,0.9-0.6,1.1-1.3,1.5c-0.3,0.2-0.7-0.1-1-0.1c-0.5,0.1-1.1,0.6-1.6,0.8c-2.1,0.8-4.6,0.5-6.8,0
		c-2.5-0.6-5-1.2-7.6-2c-3.1-1-6-2.3-9.1-3.4c-1-0.4-2-0.8-2.9-1.1c-0.7-0.3-1.8-0.9-2.8-0.7c-1,0.2-0.3-0.3-0.8,0.6
		c-0.2,0.3-0.2,0.9-0.2,1.3C62,6.6,62,7.6,61.9,8.7c-0.2,1.5-0.1,2.7-0.1,4.1c0,1,0.1,3-0.5,3.7c-0.9,1-1,0.1-1.9,0.1
		c-0.6,0-0.1,1.1-1.3,0.1c-2-1.6-0.5-5.7,0-7.7c0.4-1.7,0.4-3.5,0.4-5.3c0-0.8,0.2-1.7,0-2.5c-0.2-0.8-0.9-1.1-0.7-2
		c0.2-1.1,1.2-1.7,1.3-3c0.2-1.3,0.3-2.6,0.5-3.9c0.5-4.2,1.3-9.4,0.4-13.6c-3.5,1-7.3,2.3-10.3,3.8c-1.4,0.7-3,1.8-4.6,2.1
		c-1.4,0.3-1.8,0.1-2.2-1.3c-0.3-1.2,0.1-1.5,1.4-2c8.6-3.6,17-7,26.4-7.3c4.1-0.1,13-0.4,15,4.3c0.8,1.9,0.1,3.9-0.8,5.6
		c-0.6,1-1.4,2.2-2.2,3.2c-0.5,0.6-0.9,1.1-1.5,1.6c-0.6,0.5-1.2,1.2-1.6,1.5c-1,0.7-2,1.2-3,2c-2.1,1.6-4.2,3-6.6,4.2
		c-1.5,0.8-6.1,1.8-3.6,3.6c0.3,0.2,1.3,0.6,1.6,0.7c0.6,0.3,1.2,0.6,1.8,0.8c1.6,0.6,3.3,1.2,4.9,1.9c2.7,1.2,5.9,2.2,8.5,3
		c2.1,0.7,3.9,0.8,6,1.2c0.5,0.1,1.2,0.6,1.7,0.6c0.5,0,1.7-0.7,2.2-0.8C95.1,6.9,95.3,7,96.1,8.8z M82.7-19.3
		c0-2.8-6.2-3.3-8.2-3.5c-2.5-0.3-5.6-0.4-8.1,0.2c-1.6,0.4-1.9,0.7-1.9,2.2c-0.1,1.3-0.4,2.5-0.4,3.8c-0.2,4.1-0.8,8.2-0.9,12.4
		c4-0.8,8.4-3.8,11.5-6.1C77.2-12.3,82.7-15.5,82.7-19.3z"/>
	<path class="st0" d="M90.9,2.5c-0.9,1.4-2.5,1.4-3.8,0.7c-1.9-1-2.1-3.2-2.3-5.2c-0.2-2.3,0.3-4.3,0.6-6.5c0.2-1.7-0.4-3.6,0-5.2
		c0.3-1.4,1.9-2.4,3.2-0.7c1.3,1.6,0.3,5.5,0.1,7.3c-0.2,2-1,5.3,0.2,7.1c0.2,0.2,0.6-0.4,0.8-0.1C90.2,0.6,90.4,1.8,90.9,2.5z"/>
	<path class="st0" d="M111,2.9c0,2.9-3.2,4.7-5.6,5.7c-1.7,0.7-3.5,1.2-5.4,1.4c-0.8,0.1-1.2-0.1-1.9-0.3c-0.4-0.1-0.6-1-1.2-0.6
		c0-1.8-0.7-2.9,1.5-2.9c2.5,0,5-0.3,7.4-1.5c6.1-3.2-7.2-4.5-7.1-4.1c-0.5-0.8-3.9-1.4-4.8-1.8c-1.6-0.7-2.4-1.2-2.9-3
		c-0.7-2.7,0.9-4.6,2.5-6.4c2-2.3,3.9-4.1,6.5-5.7c1.8-1.2,6.8-3.5,5.3,1.3c-0.2,0.6-0.9,1.6-1.5,1.8c-0.3,0.1-0.7-0.3-1-0.2
		c-0.6,0.2-1,0.8-1.4,1c-1.1,0.7-2.1,1.2-3.2,2.1c-0.7,0.7-3.2,2.5-3.4,3.8c-0.6,3.2,5.2,3.1,6.9,3.4C105.3-2.4,111-1.9,111,2.9z"/>
	<path class="st0" d="M139.8-15.3c-0.4,1.2-1.8,1.9-1.7,3.3c-0.9,0-1.1,0.3-2,0.7c-0.4-1.2-2.9-0.4-3.9-0.2
		c-1.5,0.3-2.9,0.4-4.4,0.6c-2.5,0.4-5.4,1.1-7.9,1.1c-0.1,0.6,0.5,0.7,0.5,1.1c0.1,0.4-0.1,1-0.1,1.4c0,0.8,0,1.8,0,2.6
		c0,0.9,0.2,1.9,0.3,2.9c0,0.5,0.6,2.5,0.4,2.8c1.8-0.4,3.2-0.9,2.9,1.4c-0.1,0.8-0.2,0.9-0.6,1.6c-0.6,0.9-0.7,0.7-1.4,1.2
		c-1.4,1-2.4,1.7-3.7,0.4c-1.2-1.3-1.7-3.4-1.9-5.2c-0.2-2.3,0-4.5-0.3-6.8c-0.2-1.5-0.1-2.8-1.6-3c-2-0.2-5.6,2.2-6.8-0.2
		c-1.7-3.2,5.6-3.5,7.5-3.7c4.1-0.4,8.1-0.8,12.2-1.2c2.2-0.2,4.1-0.7,6.3-1.2c0.7-0.1,1.7-0.4,2.5-0.6c0.2-0.1,1.4-0.7,1.4-0.7
		C138.9-16.9,138.3-14.9,139.8-15.3z"/>
	<path class="st0" d="M155.3-13c-0.7,1.1-0.1,2.8-0.5,4c-0.4,1.6-0.9,3.1-1.3,4.6c-1.1,3.6-2.9,6.2-6.4,7.9
		c-2.9,1.4-5.5,2.6-8.8,2.7c-3.5,0.2-5.4-2.2-6.4-5.3c-1.4-4.3,1.5-6.9,3.8-10.1c0.2-0.2,0.2-0.6,0.2-0.7c0.5-0.6,1.3-1.1,2-1.7
		c1.2-1,2.4-2.3,3.6-3.2c2-1.4,5.1-3.3,7.7-3.1C151.9-17.8,155-16,155.3-13z M151.8-11.2c0-0.8-1.6-0.7-2-0.8
		c-0.5-0.2-1.1-1.1-1.4-1.3c-1.2-0.5-2.4,0.7-3.6,1.5c-0.7,0.4-1.4,0.7-2.2,1.3c-2.6,2.1-7.3,6.4-6.7,10.2c0.9,5.2,8.6,1.9,11,0
		C150.1-2.7,151.8-7.5,151.8-11.2z"/>
	<path class="st0" d="M200.9,1.2c-0.2,1.7-2.3,1.2-3.5,1.5c-2,0.4-3.9,0.7-6,0.9c-2.1,0.2-4.1,0.5-6.2,0.9c-1.4,0.3-2.9,0.2-4.4,0.7
		c-0.2,0.1-1.2,0.5-1.5,0.5c-0.4,0-0.9-0.4-1.2-0.4c-1,0.1-1.9,0.6-3.1,0.6c-1.7,0-4.1-0.4-5.4-1.6c-3.4-3.3,1-6.9,3.6-9
		c1.3-1,2.7-2,3.9-3.1c0.9-0.8,4.4-3.5,3.8-5c-0.9-2.3-9.9-0.4-11.5,0c-1.4,0.3-3.8,0.3-4.8,1.4c-0.5,0.5-0.5,1.2-0.7,2
		c-0.7,4-1,8.4,0.1,12.4c0.3,0.9,0.6,1.8,1.1,2.6c0.1,0.1,0.4-0.1,0.5,0.1c0.3,0.7,0.3,2.8-0.4,3.3c-2.7,2-5.2-5.5-5.4-6.8
		c-0.5-3.1,0.1-6.8,0.2-9.8c0.1-1.5,0.8-2.7-0.8-2.5c-0.7,0.1-1.5,1-2.2,1.2c-1.1,0.2-2.6-0.8-2.5-2c0.1-1.2,1.4-1.7,2.4-2.1
		c1.2-0.5,2.3-0.8,3.4-1.6c0.5-0.4,1-1,1.6-1.2c0.3-0.1,1.4,0.5,1.7,0.5c0.5,0,0.9-0.2,1.4-0.3c2.6-0.6,5.6-1.4,8.5-1.6
		c3.3-0.2,8.2-1.4,10.6,1.3c3.3,3.6-2.7,9-5.2,11.2c-1.5,1.3-8.7,6.1-4.2,7.1c2.2,0.5,5-0.4,7.2-0.6c1.8-0.2,3.9-0.4,5.5-0.5
		c2-0.2,4.1-0.5,6.1-0.6C195,0.6,200.3-0.7,200.9,1.2z"/>
	<path class="st0" d="M215.3,4.8c-0.5,2.2-5.2,1.9-6.6,1.4c-1.5-0.6-1.8-1.4-2.6-2.8c-0.3-0.5-0.6-1.4-1.2-1.5
		c-0.2-0.1-0.5,0.2-0.7,0.1c-0.1,0.4-0.3,0.5-0.5,0.3c-0.1-0.1-0.2-0.2-0.4-0.3c-1.5,0.2-3.4,0.4-4.9,0.6c-1.5,0.2-2.4,0.7-4.1,0.6
		c-1.8-0.1-1.9,0.1-3,1.4c-1,1.2-1.9,3.2-3.1,4.1c-1.7,1.2-3.7-0.1-2.8-2.1c0.2-0.5,0.7-0.7,0.9-1.1c0.1-0.2-0.5-0.7-0.4-0.9
		c0.6-0.8,1.9-1.5,2.6-2.4c2.2-2.8,3.8-5.8,5.5-8.5c2.2-3.6,3.1-7.3,4.8-11c0.5-1.1,0.5-1.6,1-2.3c0.8-1,0.6-0.5,1.8-0.2
		c1.3,0.4,1.8,0.1,2.3,1.5c1.3,3.5,1.5,7.5,2.5,11c0.6,1.9,0.8,5.9,2.7,6.7c0.6,0.2,1.9-0.2,2.4,0.1c1.1,0.8-0.5,1.2,0.1,2.2
		c-0.6-0.1-1.5,0-2,0.2c0.2,0.5,0.6,0.9,1,1.2c0.9,0.6,0.5,0.1,1.5,0.3c0.5,0.1,1.1,0.2,1.6,0.4C214.7,3.9,214.5,4,215.3,4.8z
		 M204.3-0.9c-0.2-2-0.9-4.5-1.5-6.4c-0.4-1.5-0.7-5-2.2-6c-0.1,0.3,0.1,0.8-0.1,0.9c-0.1,0.2-0.5,0.9-0.7,1.3
		c-0.5,1-0.9,2.1-1.4,3.1c-1,1.9-2.3,3.8-3.1,5.8c-0.6,1.6-0.2,1.3,1.1,1.6c1.1,0.2,1.5,0.2,2.6,0.2c1,0,2-0.1,3-0.1
		C203.2-0.4,203.6-0.2,204.3-0.9z"/>
	<path class="st0" d="M236.3-15.8c-0.2,0.5-0.3,1-0.2,1.5c-0.4,0.1-0.7,0.3-0.9,0.7c-0.5,1.1-0.4,1.4-0.3,2.7c0.3,2.6,0.6,5.1,1,7.7
		c0.3,2.3,0.3,4.8-0.1,7.1c-0.4,2.2-1.3,3.4-3,4.7c-1.6,1.2-2.2,1.3-4.3,0.4c-2-1-3.2-2.1-4.8-3.6c-1.3-1.3-2.2-2.7-3.2-4.3
		c-0.9-1.4-1.7-3-2.8-4.4c-0.5,0.9-0.9,2.4-1.2,3.4c-0.1,0.2,0.3,0.4,0.3,0.6c-0.1,0.3-0.6,0.5-0.7,0.7c-0.1,0.7,0,1.5-0.1,2.2
		c-0.2,1.6-0.5,2.8,0.1,4.3c0.2,0.4-0.3,0.1,0.1,0.7c0.2,0.4,0.8,0.5,1.1,0.9c0.5,0.8,0.4,1.3-0.2,1.9c-0.6,0.6-2.8,1-3.5,0.7
		c-1.9-0.7-1.9-4.6-1.8-6.3c0.2-3.8,1.7-7.9,2.4-11.5c0.5-2.4,0.8-4.6,0.9-7c0.1-1.1-0.1-2.4,0.8-3.2c0.7-0.7,2.2-0.7,3,0
		c1.3,1.1,1,4.7,1.5,6.3c0.1,0.3,0.3,0.3,0.4,0.7c0.2,0.7,0.4,1.1,0.6,1.7c1.5,4.3,3.4,7.9,6.7,11.1c0.6,0.6,1.2,1.1,2,1.4
		c1.3,0.4,0.9,0.2,1.6-0.5c1.2-1.3,1-3.9,1.1-5.6c0.2-3.4-0.3-7-0.9-10.4c-0.3-1.7-1.2-3.7-0.9-5.4c0.2-1.3,1.3-1,2.5-0.7
		C234.2-17.2,235.8-16.7,236.3-15.8z"/>
	<path class="st0" d="M268.3-15.3c-0.4,1.2-1.8,1.9-1.7,3.3c-0.9,0-1.1,0.3-2,0.7c-0.4-1.2-2.9-0.4-3.9-0.2
		c-1.5,0.3-2.9,0.4-4.4,0.6c-2.5,0.4-5.4,1.1-7.9,1.1c-0.1,0.6,0.5,0.7,0.5,1.1c0.1,0.4-0.1,1-0.1,1.4c0,0.8,0,1.8,0,2.6
		c0,0.9,0.2,1.9,0.3,2.9c0,0.5,0.6,2.5,0.4,2.8c1.8-0.4,3.2-0.9,2.9,1.4c-0.1,0.8-0.2,0.9-0.6,1.6c-0.6,0.9-0.7,0.7-1.4,1.2
		c-1.4,1-2.4,1.7-3.7,0.4c-1.2-1.3-1.7-3.4-1.9-5.2c-0.2-2.3,0-4.5-0.3-6.8c-0.2-1.5-0.1-2.8-1.6-3c-2-0.2-5.6,2.2-6.8-0.2
		c-1.7-3.2,5.6-3.5,7.5-3.7c4.1-0.4,8.1-0.8,12.2-1.2c2.2-0.2,4.1-0.7,6.3-1.2c0.7-0.1,1.7-0.4,2.5-0.6c0.2-0.1,1.4-0.7,1.4-0.7
		C267.4-16.9,266.8-14.9,268.3-15.3z"/>
	<path class="st0" d="M283.8-15c-0.3,1.9-6.3,0.8-7.7,1c-2.8,0.4-6.1,1.2-8.7,2.3c-1.5,0.6-2.5,2-1.7,3.7c0.6,1.4,0.5,0.8,1.6,0.7
		c2.8-0.2,5.5-0.6,8.3-0.9c1-0.1,2.7-0.2,2.7,1.3c0,0.7-0.7,1.4-1.2,1.7c-0.8,0.5-2.7,0.6-3.7,0.9c-0.9,0.3-2.4,0.9-3.1,1
		c-2,0.4-4.8-0.5-5.5,1.7c-0.1,0.4-0.3,1.8-0.3,2.2c0,0.5,0.4,0.3,0.4,0.7c0.1,1.5-0.3,2.8,0.5,4.3c1.2,2.1,3,1.5,4.6,0.6
		c0.9-0.5,2.4-1.1,3.2-2c0.3-0.3,0.6-1.1,0.8-1.4c0.1-0.1,0.3-1.1,0.4-1.2c0.4-0.6,1.2-1.4,1.7-1.5c1-0.2,1.9,0.5,1.9,1.7
		c0,1.2-1.5,3.1-2.2,4.1c-0.8,1.3-2.1,2.6-3.4,3.4c-0.9,0.5-2.9,1.7-3.8,1.9c-0.4,0.1-1.8,0.1-2.2,0c-0.5-0.1-0.7-0.5-1.1-0.6
		c-2.8-0.9-4.2-2.9-4.7-5.9c-0.1-0.3,0-1.3,0-1.9c-0.1-0.8,0.1-1.7,0.1-2.5c0.1-0.9,0.3-1.8,0.3-2.7c0-1.1-0.3-1.5,0-2.5
		c0.5-1.7,0.8-2.3,0.7-4.1c0-1-0.4-3,0.4-3.8c0.6-0.5,1.1-0.3,1.7-0.6c0.1-0.1,0.2-0.5,0.2-0.6c0.6-0.3,1.3-0.7,1.9-1
		c2.7-1.4,5.2-1.3,8.1-1.6c2-0.2,3.9,0,5.9,0.1C281.6-16.4,283.8-16.9,283.8-15z"/>
	<path class="st1" d="M47.9,10.5c-0.8,1.1-1.6,2.3-2.7,3.1c-1.1,0.8-0.9,0.4-1.4,1.7c-0.2,0.5-0.2,1.5-0.3,2
		c-0.6,3.7-0.9,7.5-1.3,11.3c-0.4,3.2-0.8,6.5-1.3,9.7c-0.5,3.1-1.4,6.2-1.7,9.3c-0.2,2.8-1.1,5.4-1.8,8.1c-0.4,1.6-0.5,3.2-0.9,4.8
		c-0.3,1.6-1,3.1-1.5,4.6c-0.8,2.4-2,4.5-2.7,6.8c-0.9,2.8-2.5,6.2-3.9,8.7c-1.3,2.5-2.9,4.9-5.2,6.4c-2.6,1.8-4.3,1.6-6.7-0.5
		c-0.9-0.8-0.8-0.9-1.2-2c-0.3-0.8-0.1-0.5-0.7-1.3c-0.2-0.4-0.6-0.7-0.8-1.1c-0.4-1,0-1.4,0-2.1c0-1.3-0.4-3-0.9-4.1
		c-0.5-1.3-0.8-2.7-1.1-4.1c-0.3-1.1-0.9-2.1-1.2-3.3c-0.3-1.2-0.4-2.4-0.6-3.6c-0.2-1.2-0.7-2.6-0.8-3.8c0-1.3,0.2-1.9-0.1-3.3
		c-0.3-1.6-0.6-3.2-0.8-4.8c-0.5-3.5-0.9-7-1.6-10.5c-0.3-1.7-0.9-3.4-1.2-5.1c-0.2-1-0.1-2-0.7-3C4,33.1,4.1,33.7,4,32.4
		c-0.1-0.7,0-1.4-0.1-2.1c-0.1-0.5-0.3-0.9-0.4-1.4c-0.2-0.9,0-2-0.2-2.8C2.9,25,1.3,24,1,23c-0.1-0.4,0.3-0.8,0.3-1.2
		c-0.1-1-0.8-0.9-1.1-1.7c-0.6-1.6,0.9-1.9,1.9-2.7c0.1-0.1,0.8-0.7,1-0.8c0.1-0.7,0.5-0.8,1.2-0.4c0.6,0.5,0.9,0.5,1,0.1
		c0-0.3-1.1-0.4-1.3-0.7c1.3-0.3,2.5,0.2,3.7,0.9c1.2,0.7,1.3,0.9,1.5,2.2c0.1,0.9,0.1,1.5,0.1,2.4c0,1,0.5,2.7,0.7,3.9
		c0.2,1.4,1,2.6,1.3,3.8c0.2,1.3-0.2,2.9,0.1,4.2c0.3,1.4,0.6,2.7,0.7,4.1c0,1.1-0.3,2.1-0.1,3.2c0,0.3,0.5,0.5,0.5,0.8
		c0.1,0.5-0.2,1-0.2,1.6c-0.1,1.5,0.8,2.7,1,4.2c0.1,0.6-0.1,1.1-0.1,1.6c0,0.8,0.1,0.8,0.2,1.6c0.1,0.5,0.5,1.3,0.6,1.7
		c0,0.5-0.3,0.9-0.3,1.3c0,0.8,0.5,1.5,0.5,2.2c0.1,0.9,0.1,1.6,0.4,2.5c0.4,1.5,0.1,5.4,1.9,5.8c0,0.2-0.6,0.5-0.6,0.6
		c0.1,0.4,0.2,0.7,0.4,1.1c0.2,0.7,0.5,1,0.6,1.7c0.4,2,0.7,4.1,1,6.1c0.2,1.1,0.4,1.9,1,3.1c0.2,0.4,0.7,0.6,0.8,1
		c0.2,0.5,0.2,1.3,0.4,1.9c1.3,3.1,2.6,0.5,3.6-1.1c0.4-0.7,0.9-1.6,1.3-2.4c0.2-0.4,0-0.8,0.1-1.2c0.1-0.1,0.6-0.1,0.6-0.2
		c0.7-1.8,1.7-3.9,2.3-5.7c0.2-0.5,0.1-1.3,0.3-1.8c0.3-0.8,1.1-1.6,1.4-2.5c0.2-0.6,0.2-1.1,0.3-1.8c0-0.2-0.1-0.9-0.1-1
		c0.1-0.3,0.9-1,1.1-1.5c0.6-1.9,0.7-3.9,1.3-5.8c0.3-0.9,0.5-1.4,0.6-2.2c0.1-0.8,0.1-1.6,0.4-2.4c1.1-4.6,1.8-9.2,2.9-13.8
		c0.9-3.7,0.8-7,1.1-10.8c0.2-2.5,0.9-4.9,1.1-7.4c0.1-1.2-0.1-2.8,0.2-4c0.2-0.6,0.6-0.5,0.8-1.4c0.1-0.5-0.2-1-0.2-1.5
		c-0.2-2.1,0.2-4,0.1-6.2c-0.1-1.9-0.5-3.5,1.7-3.9C41,0.4,43.2,0,43.3,0c0.7,0.2,1.9,2.2,2.3,2.8c0.7,1,1.3,2.2,1.5,3.4
		C47.5,7.7,47,9.1,47.9,10.5z M35.9,42.4c-0.2-0.2-0.5-0.3-0.7-0.4C35.2,42.7,35.4,42.8,35.9,42.4z"/>
	<path class="st1" d="M82.1,32.1c-0.5,2.4-6.5,1.6-8.4,1.6c-1.2,0.1-2.4,0-3.5,0.1c-1.1,0.1-1.6,0.4-2.7,0.7
		c-1.1,0.3-2.1-0.1-3.1,0.1c-1,0.2-2.1,0.9-3.1,1.2c-1.9,0.6-3.9,1-5.8,1.6c-2,0.7-3.5,1.2-3.7,3.4c-0.1,1.7-0.6,4.8,1.8,4.7
		c0.6,0,1.2-0.4,1.9-0.5c1.1-0.2,2.4,0.1,3.5,0c2.1-0.1,4.1-0.6,6.2-0.7c2-0.2,4.9-1.5,6.9-0.4c1.9,1,0.3,4-0.9,4.6
		c-0.7,0.3-2.2,0.2-3,0.4c-0.9,0.2-1.8,0.6-2.6,0.9c-3.8,1.3-6.9,2.1-10.9,2.4c-1.3,0.1-2.9-0.2-3.9,1c-1.1,1.4,0.4,4-0.9,5.4
		c0.1,0.5,0.8-0.1,0.9,0.6c0.1,0.4-0.1,0.7-0.1,1.1c0,1.2-0.1,2.4,0.1,3.6c0.6,2.9,3,6.3,6.4,4.7c0.7-0.3,1-0.9,1.6-1.2
		c0.2-0.1,0.6,0.2,0.9,0.1c0.6-0.3,1-0.5,1.5-0.9c1-0.8,2.5-1.6,3.4-2.5c0.5-0.5,1.8-2.6,1.9-3.1c0.3-1.1-0.1-1.2,0.6-2.1
		c0.1-0.2,1.6-1.9,1.7-1.9c0.1,0,1.1,0.2,1.1,0.2c1.2,0,0.8-0.5,1.6,0.4c0.2,0.2,0.6,1.3,0.6,1.5c0.3,1.7-1,3.6-1.8,5.2
		c-2.8,5.2-6.7,8.4-12.2,10.6c-1.9,0.7-4.7,0.9-6.6,0c0-0.1,0-0.3,0-0.4c-0.6,0-1.2-0.1-1.8-0.3c-0.5-0.2-1-0.4-1.4-0.8
		c-1.3-0.9-2.2-2.4-2.8-3.8c-0.5-1.1-1.2-2.7-1.4-4c-0.2-1.1,0.2-1,0.1-1.8c-0.2-2.6-0.6-5.4-0.2-8c0.2-1.4,0.6-2.6,0.4-4
		c-0.1-0.7-0.5-1.4-0.4-2.1c0.2-1.2,1.2-2.3,1.6-3.5c0.4-1.4,0.3-2.8,0.2-4.3c-0.1-1.8-0.6-4.5,0.4-5.9c0.9-1.3,2.2-0.8,3.2-1.5
		c0.3-0.2,0.5-0.7,1-1c0.5-0.4,1.2-0.6,1.8-1c1.4-0.8,2.7-1.6,4.3-1.9c1.5-0.4,2.8-0.8,4.2-0.7c1.6,0.2,2.9-0.3,4.5-0.4
		c3.4-0.4,7.2-0.3,10.6,0.1c1.6,0.2,3,0.2,4.6,0.3c0.2,0,1.4,0,1.4,0C81.8,30.1,82.1,31.8,82.1,32.1z"/>
	<path class="st1" d="M107.3,61.9c0,2.2-1.5,3.9-2.7,5.5c-1.5,2-4.3,3.1-6.6,4c-2.5,1-5,1.8-7.7,2.2c-1,0.1-2.9,0.6-3.9,0.1
		c-0.7-0.4-1.4-2.1-2.5-1.3c0-1.1-0.5-2.6-0.3-3.7c0.3-1.2,1.4-1.1,2.7-1.1c1.6,0,2.9,0.3,4.5,0.1c2-0.3,3.9-1.1,5.9-1.8
		c2-0.7,4.2-0.9,4.2-3.4c0-1.1-0.1-1.1-1.2-1.9c-0.7-0.5-1.5-0.9-2.4-1.2c-1-0.3-1.8,0-2.8-0.2c-0.8-0.2-1.7-0.7-2.6-0.9
		c-0.5-0.1-5.4-0.9-5,0c-0.8-1.2-3-1.1-4.2-1.4c-1.9-0.5-4.7-1.4-6.3-2.5c-1.4-1-2.1-2.8-2.5-4.5c-0.2-0.7-0.6-2.2-0.5-2.9
		c0.1-0.8,0.9-1.8,1.2-2.6c0.1-0.3,0.3-1.2,0.5-1.4c0.2-0.2,0.9-0.2,1.1-0.4c0.3-0.4,0.3-1,0.6-1.6c0.4-0.8,1.9-1.7,2.5-2.4
		c0.8-0.8,1.3-2,2.1-2.8c0.6-0.6,1.5-1.1,2.2-1.8c0.7-0.7,1.3-1.3,2.2-1.8c1.5-0.9,3.2-2.2,4.6-2.8c1.5-0.7,4-2.3,5.7-2.1
		c1.9,0.2,1.8,2,1.8,3.6c0.1,1.5-0.4,3.4-1.9,4.3c-1.2,0.7-1-0.2-2.3,0c-0.5,0.1-0.7,0.5-1.1,0.7c-0.7,0.3-1,0.7-1.6,1.1
		c-0.7,0.5-1.5,0.6-2.3,1.2c-0.9,0.8-1.7,1.6-2.7,2.3c-0.4,0.3-0.6,0.2-1,0.5c-0.4,0.4-0.7,1.1-1.1,1.6c-1.4,1.6-3.6,2.9-3.2,5.2
		c0.3,2,2,3,3.8,3.4C91.2,52.8,107.3,51.1,107.3,61.9z"/>
	<path class="st1" d="M144.3,59.8c-0.8,3.1-5.3,5-8.2,3.8c-4.2-1.8-4.1-7.7-5.1-11.3c-1.2,1-1.7,2.5-2.7,3.7c-0.9,1-1.8,1.4-2.6,2.4
		c-0.6,0.8-0.4,0.7-1.1,1.4c-0.7,0.6-1.5,1.2-2.2,1.8c-1.2,1.1-2.3,2.2-3.5,3.2c-2.2,1.7-4.3,2.3-6.9,1.5c-2.5-0.7-4.1-2.9-4.6-5.5
		c-0.2-1.3-0.6-2.6-0.9-3.8c-0.3-1.5,0.1-2.9,0.4-4.4c0.5-3,0.9-6.3,2.5-9c0.8-1.4,0.6-1.3,1-2.7c0.4-1.4,1.4-2.6,1.7-4
		c0.4-1.5,0.1-2,2-2.4c1-0.2,2.6-0.3,3,0.7c0.8,1.8-1.3,5.4-1.8,7.2c-0.3,1-0.6,1.9-1,2.7c-0.6,1.2-0.9,2.2-1.1,3.6
		c-0.5,2.8-1.1,6.1,0,8.9c0.6,1.4,0.5,0.7,1.3,1.2c0.3,0.2,1.1,0.8,1.5,0.8c0.9,0,0.8-0.8,1.2-1.1c1.3-0.7,2.7-1.3,3.9-2.4
		c0.4-0.4,0.7-0.9,1.1-1.4c0-0.2,0-0.4,0-0.6c0.4,0,0.8-0.1,1.1-0.4c0.6-0.6,1.2-1.2,1.7-1.8c1.5-2,2.5-4.6,3.6-6.9
		c0.5-1.1,1.1-2.3,1.3-3.5c0.2-1.7-0.3-1.5,0.7-3.1c0.7-1.1,1.4-2.8,2.8-3.2c0.7-0.2,1.5,0.1,2.3,0.2c1.4,0.3,1.4,0.1,1.9,1.2
		c0.5,1.3,0.4,3.4,0.7,4.8c0.3,1.4,0.3,2.5,0.3,4c0,1.6,0.5,3.2,0.5,4.7c0,1.6-0.4,2.8,0,4.4c0.5,2,0.5,3,2.6,3.6
		c0.2,0,0.8-0.3,0.9-0.2C143.1,58.1,143.7,59.4,144.3,59.8z"/>
	<path class="st1" d="M175.4,27.6c0,2.8-0.9,4.5-2.7,6.4c-0.4,0.5-1.3,0.9-1.6,1.3c-0.4,0.6-0.6,2.3-0.8,3c-0.6,2-1.2,3.9-1.7,5.9
		c-0.9,3.4-1.9,7.4-3.4,10.6c-1.2,2.5-2.7,5.4-3.6,7.9c-0.6,1.6-0.6,2.4-1.9,3.6c-1,1-1.9,2.1-2.9,3.1c-1,0.9-2.5,2.2-3.8,1.7
		c-0.6-0.3-1.1-1-1.6-1.5c-1.2-0.9-1.3-1.2-1.5-2.8c-0.5-3.7-0.4-7.3-1.4-11c-0.4-1.3-0.1-2.7-0.4-4c-0.1-0.5-0.6-1.1-0.8-1.6
		c-0.3-0.9-0.3-2-0.4-3c-0.1-0.8-0.5-1.5-0.6-2.2c-0.1-0.6-0.1-1-0.2-1.7c-0.2-1.2-0.5-1.9-0.7-3.2c-0.2-1.2-0.3-2.4-0.8-3.3
		c-0.5-1-2.5-4-2.4-5.3c0.1-1.8,2-2.5,3.2-1.5c1.1,1,1.7,3.8,2.2,5.2c0.7,1.9,1.3,3.9,1.7,5.8c0.9,3.6,1.7,7.3,2.4,11
		c0.3,1.8,0.5,3.6,1,5.3c0.2,0.8,1.1,5.2,1.9,5.4c1.8,0.5,4-5.3,4.3-6.4c0.3-1.3,1-2.2,1.5-3.4c0.2-0.7,0.4-1.3,0.7-1.9
		c0.2,0,0.4,0,0.5,0c0-0.7,0.1-1.4,0.2-2.1c0.4-1.9,1.5-3.4,1.9-5.2c0.4-1.8,1.4-3.3,1.8-5.1c0.3-1,0.2-1.8,0.5-2.7
		c0.2-0.2,0.4-0.5,0.6-0.7c0-0.6,0-1.2,0.1-1.8c0.2-1,0.4-1.6,0.8-2.5c0.8-2,1.1-4.3,1.9-6.5c0.1-0.4,0.5-1.6,0.8-1.8
		c0.3-0.2,1.2,0.1,1.6,0c0.8-0.3,0.8-1.4,2.2-1C175.5,22,175.4,26.1,175.4,27.6z"/>
	<path class="st1" d="M184.9,61.3c-1.4,2.2-4.3,2.4-6.3,1.2c-1.2-0.7-2.3-2.1-3-3.5c-0.7-1.5-0.6-3.4-0.8-5.1
		c-0.4-3.2,0.2-6,0.7-9.2c0.3-1.6,0.5-3.2,0.5-4.9c0-1.3-0.5-2.6-0.5-3.8c0.1-2.3,1-5.1,4.1-3.8c3.4,1.4,2.2,7.8,1.9,10.6
		c-0.4,4-1.4,8.2-0.6,12.2c0.1,0.5,0.3,2.1,0.7,2.3c0.3,0.2,0.9-0.6,1.1-0.3C183.7,57.8,184.2,60.1,184.9,61.3z"/>
	<path class="st1" d="M224.6,35.4c-0.9,1.3-0.3,3.2-0.4,4.7c-0.1,1.8-1,3.2-1.3,5c-0.3,1.8-0.7,3-1.3,4.7c-0.6,1.9-0.6,3.5-1.8,5.3
		c-1.4,2.1-2.8,4-4.9,5.2c-0.9,0.5-1.5,1.3-2.4,1.9c-1.2,0.7-2.6,1.1-3.9,1.7c-1,0.5-1.8,1.2-2.8,1.7c-0.8,0.4-1.7,0.4-2.6,0.7
		c-1.6,0.4-3,0.6-4.4,0.8c-4.3,0.6-9.1-0.1-11.4-4.1c-1-1.8-1.6-3.8-2.3-5.8c-0.7-2.2-0.2-4.7,0.8-6.8c0.9-2,2-3.8,3.3-5.5
		c0.8-1.1,2.1-2,2.7-3.1c0.1-0.2,0-0.7,0.2-0.9c0.3-0.4,0.5-0.1,0.8-0.6c0.5-0.6-0.1-0.2,0.9-1.2c0.3-0.3,0.8-0.6,1.2-0.9
		c1-0.8,1.8-1.7,2.7-2.5c0.7-0.6,1.6-1.1,2.3-1.7c0.7-0.5,1-1.1,1.7-1.7c0.9-0.8,2.2-1.1,3.3-1.8c1.2-0.7,2.3-1.5,3.6-2.1
		c2.1-1,4.4-1.6,6.6-1.1c0.9,0.2,1.8,0.3,2.6,0.5c1,0.2,1.6,0.6,2.5,1.4C221.9,30.5,224.3,33.2,224.6,35.4z M218.7,38.4
		c0-0.7-0.8-1-1.5-1.1c-0.3-0.1-0.6-0.2-0.9-0.2c-0.6,0.4-1,0.3-1.1-0.4c-0.5-0.2-1.4-0.5-1.8-0.9c-0.3-0.3-0.4-1.6-1.1-1.7
		c-0.3,0-1.9,1.1-2.3,1.3c-0.8,0.4-1.6,0.9-2.4,1.3c-1,0.5-1.7,0.7-2.6,1.5c-2.9,2.6-6.2,4.5-8.2,7.9c-1.8,3.1-5.1,6.3-4.5,10.2
		c1.4,8.8,14.2,3.1,18.4,0.1c2.7-1.9,4.5-5,5.6-8c0.6-1.6,1.3-3.1,1.7-4.8c0.2-0.9,0.2-1.7,0.3-2.6
		C218.5,40.2,218.7,39.3,218.7,38.4z"/>
	<path class="st1" d="M240.3,16.5c-0.3,2.7-1.3,4.6-2.2,7c-0.4,1.2-1,2.3-1.4,3.5c-0.2,0.6-0.3,1.6-0.5,2.1c-0.1,0.3-0.5,0.7-0.6,1
		c-0.7,2.3,0.8,5.4-0.3,7.3c-1.2,2-3.6,3.2-5.5,1.7c-4.8-3.8-0.4-11.4,1.2-15.9c0.5-1.4,1-2.9,1.4-4.3c0.3-1.1,0.3-3,1.2-3.7
		c0.8-0.8,2.9-0.9,4-0.9C238.6,14.4,239.7,15.2,240.3,16.5z"/>
	<path class="st1" d="M287.6,46.4c-1.9,1.3-4.5,0.8-6.6,0.8c-1.1,0-2.1,0.1-3.2,0.3c-0.9,0.2-1.8,0-2.8,0.1
		c-0.7,0.1-0.7,0.7-1.7,0.8c-0.8,0.1-1.6,0-2.5,0.1c-1.5,0.2-2,0.3-2.8,1.5c-0.7,1-1.1,2.6-1.5,3.8c-0.8,2.3-2.1,4.5-2.8,6.8
		c-0.1,0.3,0.1,0.8,0,1.1c-0.4,1.3-1.1,2.6-1.5,3.9c-0.9,2.6-1.6,5.4-2.1,8.1c-0.2,1.4-0.5,2.7-0.6,4.1c-0.1,0.7-0.2,1.4-0.2,2.1
		c0.3,0.2,0.7,0.5,1,0.7c1.1,1.4,3.6,2.6,1,4c-2,1.1-4.7,0-6.2-1.5c-1.7-1.8-0.9-2.7-1-4.8c-0.1-1-0.6-2-0.6-3
		c0-1.3,0.3-2.5,0.8-3.7c0.5-1,1.7-2.3,1.9-3.3c0.1-0.6-0.2-1.3,0.1-2.1c0.3-0.8,0.9-1.5,1.2-2.3c0.3-1,0-2.1,0.4-3.2
		c0.3-0.7,1-1.2,1.3-1.9c0.5-1.1,0.7-2.3,1.2-3.4c0.9-2,1-4.3,2.1-6.3c-0.7,0-2.4-0.4-2.1,0.8c-1.2-0.4-1.4-0.7-2.4-0.3
		c-0.7,0.2-1.1,0.7-1.9,0.8c-0.8,0.1-1.7-0.3-2.5,0c-1.4,0.5-1.1,0.7-2.6,0.6c-2.3-0.2-4.6,0.4-6.9,0.5c-1,0-2.5,0.1-3.5-0.5
		c-1-0.5-0.5-0.5-0.9-1.4c-2.4-6.6,11.7-5.1,15-5.2c1.2,0,2.3-0.3,3.4-0.5c1.1-0.2,2-0.1,3.2-0.1c0.8,0,2.7,0.1,3.3-0.4
		c0.9-0.6,1.6-2.8,1.9-3.7c1.6-4.4,3.6-8.4,5.3-12.6c0.8-2,2.2-3.7,3-5.7c0.5-1.1,3.2-4.9,2.1-5.7c-0.7-0.5-5.8,1.6-6.8,1.9
		c-2.3,0.7-4.6,1.6-6.7,2.7c-2,1-3.7,2.3-5.6,3.5c-1.8,1.1-3.8,1.9-5.6,2.9c-0.7,0.4-1.3,1.1-2,1.7c-1,0.9-1.9,1.5-3.3,2.2
		c-2.1,1.1-3.5,2.4-5.6,0.3c-1.3-1.3-1.2-3.5,0.3-4.7c0.8-0.6,2.2-0.9,3.2-1.5c1.2-0.7,2.3-1.5,3.6-2c1.6-0.7,2.9-1.6,4.4-2.4
		c1.6-0.9,3.5-0.7,4.9-2c1.2-1.1,1.9-1.3,3.3-1.9c1.4-0.6,2.9-2.1,4.2-2.5c0.7-0.2,1.5,0,2.2-0.4c0-0.1,0-0.2,0-0.3
		c-0.1-0.4,0.2-0.6,0.8-0.4c0.3-0.2,1-0.4,1.3-0.5c2.1-0.8,4.4-1.3,6.6-2.1c1.2-0.4,2.4-0.9,3.7-1.1c1.3-0.2,1.1,0.1,2.1,0.6
		c0.7,0.3,2.8,0.6,3.1,1.3c0.3,0.7-0.5,2.1-0.7,2.7c-0.3,0.9-0.7,2-1.1,2.9c-0.5,1.2-1.1,2.2-1.8,3.3c-0.4,0.7-0.3,1.1-0.6,1.7
		c-1,2.2-2.6,4.3-3.7,6.5c-0.5,1-1,2.1-1.5,3.2c-0.5,1-1.2,1.9-1.5,2.9c-0.2,0.6,0,1.2-0.2,1.7c-0.3,0.8-1,1.7-1.4,2.5
		c-0.1,0.3-0.6,0.4-0.7,0.6c-0.2,0.4-0.1,1-0.2,1.5c-0.2,0.9-1.2,1.6-0.4,2.3c0.1,0.1,2.4,0.6,2.7,0.6c1,0,2-0.4,3.1-0.4
		c1.2,0.1,2.3,0.4,3.5,0.4c0.8,0,1.2-0.6,1.8-0.7c1-0.2,1.8,0.3,2.7,0.8c0.3,0.2,2.4,0.7,2.5,0.9C287.8,44.9,287.6,46,287.6,46.4z"
		/>
	<path class="st1" d="M341.4,24.1c0,1.8-0.5,4.8-1.6,6.2c-1.3,1.6-3.6,2.9-5.2,4.3c-1.5,1.3-2,3-2.5,4.9c-0.3,1-0.7,2-0.9,3
		c-0.1,0.7,0.1,1.1,0.1,1.8c-0.1,1.3-0.8,2.8-1.1,4c-0.5,2.4-0.8,4.8-1.3,7.2c-0.8,3.6-0.8,7.3-0.9,11c0,1.9,0.1,3.8,0.5,5.7
		c0.4,1.7,1.7,3.3,2,4.8c0.3,1.5-0.3,3.6-1.7,4.4c-1,0.5-3.6,0.1-4.3-0.9c-0.6-0.8-0.4-3.2-0.8-4.4c-0.6-2.1-1.4-4.2-1.5-6.3
		c-0.2-2.4,0.1-4.3,0.1-6.6c-0.1-3.6,0.2-7.3,0.7-10.9c0.3-2.2,1.1-4.5,1.3-6.7c0.1-0.6,0.6-3.9,0.1-4.4c-1-1-4.3,1.6-5.3,1.9
		c-2.1,0.7-4.2,1.7-6.3,2.3c-4,1.3-7.8,2.9-11.9,3.8c-1.6,0.3-3.2,0-4.8,0.1c-1.3,0.1-2.5,0.5-4,0.4c-2.7-0.2-7-1.6-7.4-4.6
		c-0.5-3.4,1.8-6,4.2-8c2.8-2.3,5.8-4.8,8.9-6.8c1.7-1.1,3.2-2.5,4.9-3.3c2.1-1,4.5-2.1,6.4-3.2c1-0.6,1.6-1.2,2.7-1.7
		c1.2-0.5,2.4-0.9,3.6-1.4c1.9-0.8,3.9-1.6,5.9-2.1c1.8-0.5,4.7-1.4,6.5-0.9c1.5,0.4,2.5,2.4,4.1,2.7c0.8,0.1,1.7-0.5,2.4-0.8
		c1.3-0.6,1.7-0.7,3-0.1C339.4,20.3,341.4,21.6,341.4,24.1z M328.3,28c-1.6-1-2-1.3-2.6-3c-0.3-0.9,0.2-0.4-0.5-1
		c-0.4-0.3-0.9-0.6-1.4-0.6c-0.8,0-2,0.8-2.9,1.1c-1,0.3-2,0.6-3,0.9c-1.4,0.4-2.8,1.3-4.1,1.6c-1.6,0.3-1.5-0.2-2.8,0.9
		c-1.3,1.1-2.7,1.8-4.3,2.5c-1.5,0.7-2.4,1.6-3.7,2.6c-0.6,0.5-1,0.4-1.7,0.8c-1.2,0.7-2.8,2-3.7,3c-1.4,1.3-2.4,2.4-3.5,3.9
		c-0.5,0.7-2.1,1.9-1.8,2.9c0.2,0.6,2.4,1.2,3,1.3c1.9,0.3,4.2,0,6.1-0.4c4.3-0.9,8.3-2.7,12.4-4.1c1.4-0.5,2.9-0.8,4.3-1.1
		c0.9-0.2,0.4,0.1,1.3-0.5c0.8-0.5,1.4-1.1,2.2-1.5c1.6-0.8,3.8-1.5,4.8-3.2c0.6-0.9,0.2-1.8,0.5-2.7
		C327.4,30.2,328.1,29.4,328.3,28z"/>
</g>
</svg>
